<mxfile host="app.diagrams.net" agent="Mozilla/5.0 (Windows NT 10.0; Win64; x64) AppleWebKit/537.36 (KHTML, like Gecko) Chrome/139.0.0.0 Safari/537.36 Edg/139.0.0.0" version="28.1.1">
  <diagram name="Seite-1" id="rMuvv-N8VxZCm19aEwra">
    <mxGraphModel dx="778" dy="468" grid="1" gridSize="10" guides="1" tooltips="1" connect="1" arrows="1" fold="1" page="1" pageScale="1" pageWidth="827" pageHeight="1169" math="0" shadow="0">
      <root>
        <mxCell id="0" />
        <mxCell id="1" parent="0" />
        <mxCell id="pHIuoQX6V6jMLJL8ADZB-5" value="&lt;p style=&quot;margin:0px;margin-top:4px;text-align:center;&quot;&gt;&lt;b&gt;kunde&lt;/b&gt;&lt;/p&gt;&lt;hr size=&quot;1&quot; style=&quot;border-style:solid;&quot;&gt;&lt;p style=&quot;margin:0px;margin-left:4px;&quot;&gt;-vorname:str&lt;/p&gt;&lt;p style=&quot;margin:0px;margin-left:4px;&quot;&gt;-nachname:str&lt;/p&gt;&lt;p style=&quot;margin:0px;margin-left:4px;&quot;&gt;-adresse:str&lt;/p&gt;&lt;p style=&quot;margin:0px;margin-left:4px;&quot;&gt;-email,:str&lt;/p&gt;&lt;p style=&quot;margin:0px;margin-left:4px;&quot;&gt;-alter:str&lt;/p&gt;&lt;p style=&quot;margin:0px;margin-left:4px;&quot;&gt;telefonnummer:str&lt;/p&gt;&lt;p style=&quot;margin:0px;margin-left:4px;&quot;&gt;&lt;br&gt;&lt;/p&gt;&lt;hr size=&quot;1&quot; style=&quot;border-style:solid;&quot;&gt;&lt;p style=&quot;margin:0px;margin-left:4px;&quot;&gt;+deteil_kunde(formatie_anzeige():str&lt;/p&gt;" style="verticalAlign=top;align=left;overflow=fill;html=1;whiteSpace=wrap;" vertex="1" parent="1">
          <mxGeometry x="20" y="50" width="260" height="170" as="geometry" />
        </mxCell>
        <mxCell id="pHIuoQX6V6jMLJL8ADZB-7" value="&lt;p style=&quot;margin:0px;margin-top:4px;text-align:center;&quot;&gt;&lt;b&gt;bank&lt;/b&gt;&lt;/p&gt;&lt;hr size=&quot;1&quot; style=&quot;border-style:solid;&quot;&gt;&lt;p style=&quot;margin:0px;margin-left:4px;&quot;&gt;+name : str&lt;/p&gt;&lt;p style=&quot;margin:0px;margin-left:4px;&quot;&gt;+region: str&lt;/p&gt;&lt;hr size=&quot;1&quot; style=&quot;border-style:solid;&quot;&gt;&lt;p style=&quot;margin:0px;margin-left:4px;&quot;&gt;+banksuchen_deteil(alle_anzeige): str&lt;/p&gt;" style="verticalAlign=top;align=left;overflow=fill;html=1;whiteSpace=wrap;" vertex="1" parent="1">
          <mxGeometry x="510" y="70" width="260" height="130" as="geometry" />
        </mxCell>
        <mxCell id="pHIuoQX6V6jMLJL8ADZB-9" value="&lt;p style=&quot;margin:0px;margin-top:4px;text-align:center;&quot;&gt;&lt;b&gt;bankkonto&lt;/b&gt;&lt;/p&gt;&lt;hr size=&quot;1&quot; style=&quot;border-style:solid;&quot;&gt;&lt;p style=&quot;margin:0px;margin-left:4px;&quot;&gt;-kontoinhaber:int&lt;/p&gt;&lt;p style=&quot;margin:0px;margin-left:4px;&quot;&gt;-kontostand:bool&lt;/p&gt;&lt;p style=&quot;margin:0px;margin-left:4px;&quot;&gt;-bank:str&lt;/p&gt;&lt;p style=&quot;margin:0px;margin-left:4px;&quot;&gt;-region:bank&lt;/p&gt;&lt;p style=&quot;margin:0px;margin-left:4px;&quot;&gt;-kontonummer:str&lt;/p&gt;&lt;p style=&quot;margin:0px;margin-left:4px;&quot;&gt;-pin:str&lt;/p&gt;&lt;p style=&quot;margin:0px;margin-left:4px;&quot;&gt;-transaction_historie:list[tupl&lt;/p&gt;&lt;hr size=&quot;1&quot; style=&quot;border-style:solid;&quot;&gt;&lt;p style=&quot;margin:0px;margin-left:4px;&quot;&gt;+ __init__(kontoinhaber:kunde,region:bank,startguthaben=int)&lt;/p&gt;&lt;p style=&quot;margin:0px;margin-left:4px;&quot;&gt;+pin_generator():str&lt;/p&gt;&lt;p style=&quot;margin:0px;margin-left:4px;&quot;&gt;+details()&lt;/p&gt;&lt;p style=&quot;margin:0px;margin-left:4px;&quot;&gt;+einzahlen(betrag:int):bool&lt;/p&gt;&lt;p style=&quot;margin:0px;margin-left:4px;&quot;&gt;+auszahlen(betrag:int):bool&lt;/p&gt;&lt;p style=&quot;margin:0px;margin-left:4px;&quot;&gt;+kontostand_ansehen()&lt;/p&gt;&lt;p style=&quot;margin:0px;margin-left:4px;&quot;&gt;+kontoauszug()&lt;/p&gt;&lt;p style=&quot;margin:0px;margin-left:4px;&quot;&gt;&lt;br&gt;&lt;/p&gt;" style="verticalAlign=top;align=left;overflow=fill;html=1;whiteSpace=wrap;" vertex="1" parent="1">
          <mxGeometry x="310" y="250" width="380" height="270" as="geometry" />
        </mxCell>
        <mxCell id="pHIuoQX6V6jMLJL8ADZB-10" value="Relation" style="endArrow=open;html=1;endSize=12;startArrow=diamondThin;startSize=14;startFill=0;edgeStyle=orthogonalEdgeStyle;rounded=0;" edge="1" parent="1">
          <mxGeometry x="-0.4828" y="10" relative="1" as="geometry">
            <mxPoint x="130" y="230" as="sourcePoint" />
            <mxPoint x="300" y="470" as="targetPoint" />
            <Array as="points">
              <mxPoint x="130" y="310" />
              <mxPoint x="180" y="310" />
              <mxPoint x="180" y="300" />
              <mxPoint x="240" y="300" />
              <mxPoint x="240" y="470" />
            </Array>
            <mxPoint as="offset" />
          </mxGeometry>
        </mxCell>
        <mxCell id="pHIuoQX6V6jMLJL8ADZB-11" value="0..1" style="edgeLabel;resizable=0;html=1;align=left;verticalAlign=top;" connectable="0" vertex="1" parent="pHIuoQX6V6jMLJL8ADZB-10">
          <mxGeometry x="-1" relative="1" as="geometry" />
        </mxCell>
        <mxCell id="pHIuoQX6V6jMLJL8ADZB-15" value="1..+1" style="text;html=1;align=center;verticalAlign=middle;resizable=0;points=[];autosize=1;strokeColor=none;fillColor=none;" vertex="1" parent="1">
          <mxGeometry x="255" y="468" width="50" height="30" as="geometry" />
        </mxCell>
        <mxCell id="pHIuoQX6V6jMLJL8ADZB-16" value="Relation" style="endArrow=open;html=1;endSize=12;startArrow=diamondThin;startSize=14;startFill=0;edgeStyle=orthogonalEdgeStyle;rounded=0;exitX=0.75;exitY=1;exitDx=0;exitDy=0;entryX=1.011;entryY=0.548;entryDx=0;entryDy=0;entryPerimeter=0;" edge="1" parent="1" source="pHIuoQX6V6jMLJL8ADZB-7" target="pHIuoQX6V6jMLJL8ADZB-9">
          <mxGeometry relative="1" as="geometry">
            <mxPoint x="700" y="230" as="sourcePoint" />
            <mxPoint x="730" y="400" as="targetPoint" />
            <Array as="points">
              <mxPoint x="705" y="280" />
              <mxPoint x="731" y="280" />
              <mxPoint x="731" y="398" />
            </Array>
          </mxGeometry>
        </mxCell>
        <mxCell id="pHIuoQX6V6jMLJL8ADZB-17" value="1..+1" style="edgeLabel;resizable=0;html=1;align=left;verticalAlign=top;" connectable="0" vertex="1" parent="pHIuoQX6V6jMLJL8ADZB-16">
          <mxGeometry x="-1" relative="1" as="geometry" />
        </mxCell>
        <mxCell id="pHIuoQX6V6jMLJL8ADZB-18" value="1" style="edgeLabel;resizable=0;html=1;align=right;verticalAlign=top;" connectable="0" vertex="1" parent="pHIuoQX6V6jMLJL8ADZB-16">
          <mxGeometry x="1" relative="1" as="geometry">
            <mxPoint x="16" y="-18" as="offset" />
          </mxGeometry>
        </mxCell>
      </root>
    </mxGraphModel>
  </diagram>
</mxfile>
